<?xml version="1.0" encoding="utf-8"?>
<!-- Generator: Adobe Illustrator 23.0.6, SVG Export Plug-In . SVG Version: 6.00 Build 0)  -->
<svg version="1.1" id="Layer_1" xmlns="http://www.w3.org/2000/svg" xmlns:xlink="http://www.w3.org/1999/xlink" x="0px" y="0px"
	 viewBox="0 0 711.96 158.49" style="enable-background:new 0 0 711.96 158.49;" xml:space="preserve">
<style type="text/css">
	.st0{fill:#FFFFFF;}
	.st1{fill:none;stroke:#FFFFFF;stroke-width:0.5;stroke-miterlimit:10;}
</style>
<g>
	<g>
		<path class="st0" d="M225.28,79.48c2.54,0.95,5.31,1.68,8.21,1.68c5.51,0,5.83-3.89,6.51-7.85l6.68-39.16h12.44l-7.01,41.1
			c-1.18,6.95-5.55,13.24-17.94,13.24c-3.53,0-7-0.43-10.18-1.55L225.28,79.48z"/>
		<path class="st0" d="M258.3,63.11c1.04-6.03,5.8-17.22,22.35-17.22c16.58,0,17.56,11.2,16.53,17.22
			c-1.02,6.03-5.83,17.23-22.41,17.23C258.21,80.34,257.27,69.14,258.3,63.11z M275.29,73.76c5.04,0,7.48-7.12,8.07-10.65
			c0.61-3.54,0.6-10.64-4.42-10.64c-4.97,0-7.4,7.11-8,10.64C270.34,66.64,270.35,73.76,275.29,73.76z"/>
		<path class="st0" d="M306.05,32.59h12.46l-2.38,13.94l-1.06,6.21l0,0c2.83-4.15,7.63-6.95,12.6-6.95c7.08,0,9.59,4.49,8.61,10.29
			l-3.99,23.42h-12.42l3.35-19.77c0.38-2.19,1.01-5.16-2.14-5.16c-2.84,0-5.42,2.73-7.12,4.79l-3.47,20.14h-12.43L306.05,32.59z"/>
		<path class="st0" d="M353.85,52.76L353.85,52.76c2.84-4.14,7.66-6.94,12.62-6.94c7.09,0,9.59,4.49,8.61,10.29l-3.99,23.42h-12.44
			l3.38-19.77c0.37-2.19,1.01-5.17-2.15-5.17c-2.85,0-5.45,2.74-7.15,4.8l-3.44,20.15h-12.45l5.65-32.98h12.42L353.85,52.76z"/>
		<path class="st0" d="M376.7,71.15c3.94,1.39,8.14,2.61,12.59,2.61c1.92,0,5.37-0.18,5.8-2.68c0.79-4.62-17.67-3.89-15.79-14.91
			c0.68-3.95,4.28-10.28,18.28-10.28c3.99,0,7.91,0.42,11.72,1.27l-1.29,7.48c-2.78-1.08-6.71-2.18-9.93-2.18
			c-1.87,0-5.71,0.18-6.11,2.67c-0.75,4.38,18.49,3.52,16.65,14.12c-0.83,4.87-5.68,11.08-18.75,11.08c-4.93,0-9.87-0.54-14.43-1.7
			L376.7,71.15z"/>
		<polygon class="st0" points="463.74,35.51 449.26,62.01 445.36,35.51 427.37,35.51 419.89,79.52 429.28,79.52 434.63,47.93 
			434.85,47.48 439.26,79.03 448.29,79.03 465.48,47.48 465.82,47.48 460.36,79.52 472.32,79.52 479.8,35.51 		"/>
		<path class="st0" d="M509.37,79.54h-11.36c-0.19-0.66-0.22-2.63-0.22-2.63l-0.79,0.17c-2.73,2.41-6.44,3.09-9.99,3.09
			c-6.09,0-10.58-3.75-9.56-9.8c1.62-9.57,12.1-11.63,16.31-11.63h6.37l0.35-2.07c0.53-3.02-1.31-4.36-5.43-4.36
			c-3.79,0-8.26,0.91-11.91,2.78l1.25-7.28c4.52-1.47,9.08-2.07,13.51-2.07c13.22,0,15.33,4.63,14.25,11.01l-2.54,14.76
			C508.84,77.58,509.37,79.54,509.37,79.54z M499,65.32h-2.52c-2.12,0-6.53,0.18-7.22,4.15c-0.34,2,0.88,3.81,3.09,3.81
			c2.12,0,4.25-1.1,5.78-2.63L499,65.32z"/>
		<path class="st0" d="M530.34,52.75L530.34,52.75c2.83-4.16,7.64-6.96,12.62-6.96c7.07,0,9.6,4.5,8.6,10.29l-3.99,23.43H535.1
			l3.4-19.8c0.37-2.18,1.01-5.16-2.15-5.16c-2.84,0-5.45,2.73-7.15,4.8l-3.42,20.16h-12.44l5.61-32.99h12.45L530.34,52.75z"/>
		<path class="st0" d="M553.43,46.53h13.37l4.86,21.8l12.05-21.8h10.6l-19.12,32.99h-13.66L553.43,46.53z"/>
		<path class="st0" d="M597.09,46.53h12.42l-5.63,32.99h-12.43L597.09,46.53z M599.46,32.59h12.42l-1.5,8.78h-12.42L599.46,32.59z"
			/>
		<path class="st0" d="M617.59,32.59h12.42l-7.99,46.92h-12.48L617.59,32.59z"/>
		<path class="st0" d="M635.59,32.59h12.46l-8,46.92h-12.46L635.59,32.59z"/>
		<path class="st0" d="M659.6,65.59c0.02,5.59,3.71,7.34,9.23,7.34c4,0,6.16-0.85,10.1-2.06l-1.33,7.75
			c-4.76,1.15-8.1,1.7-14.12,1.62c-16.54,0-17.46-11.18-16.44-17.2c1.02-6.05,5.76-17.24,22.35-17.24c12.69,0,13.94,8.47,11.96,19.8
			H659.6z M670.98,59.72c0.63-2.84,0.68-7.35-3.32-7.35c-4.15,0-6.23,4.2-7.13,7.35H670.98z"/>
	</g>
	<g>
		<path class="st0" d="M158.8,73.36c-0.43,0-0.97,1.1-0.97,1.1c-11.61,19.03-25.42,43.41-25.42,43.41c-1.31,2.53-2.09,0-2.09,0
			l-15.45-43.41c0,0-0.35-1.24-0.89-1.24c-0.58,0-0.85,1.24-0.85,1.24s-6.72,22.89-11.8,43.41c-1.62,6.57,2.1,9.81,5.3,9.81h41.94
			c3.12,0,8.33-2.61,8.75-9.12c1.23-20.27,2.16-44.11,2.16-44.11S159.6,73.36,158.8,73.36z"/>
		<path class="st0" d="M95.57,55.07l-0.43,0.01c-1.78,11.15-3.66,23.49-3.66,23.49c-2.25,15.26-15.37,27.22-34.32,27.22
			c-10.34,0-18.65-3.76-21.57-11.24l-4.16,24.73c-0.76,4.66,2.71,8.41,7.36,8.41h41.71c1.97,0,7.75-2.64,9.63-9.12
			c8.21-28.27,15.5-52.96,15.5-52.96S109.27,55.07,95.57,55.07z"/>
		<path class="st0" d="M193.91,32.31l-85.92,0c-5.95,0-9.47,3.02-10.55,8.98c-0.4,2.39-1.17,6.77-1.92,11.57l28.9,0.34
			c0,0,5.3,15.14,12.72,34.98c0,0,0.52,1.45,1.42,0l21.49-34.98l30.22-0.34l-0.64,2.29c-1.92,0.04-2.88,0.12-2.88,0.12
			c-10.7,0.6-10.79,9.51-10.79,9.51s-0.64,25.9-1.04,54.72c-0.1,6.88,3.89,8.87,6.34,8.87c2.75,0,5.28-2.24,5.71-4.96l13.95-82.77
			C201.7,35.99,198.57,32.31,193.91,32.31z"/>
		<path class="st0" d="M54.87,79.18c1.14,3.7,0,8.07-4.57,10.96c0,0-8.81,4.76-0.2,7.84c1.39,0.39,3.19,0.68,5.34,0.68
			c13.49,0,16.61-9.86,18.39-18.68c0,0,4.86-30.57,6.13-38.61c1.06-6.63-2.95-9.07-7.76-9.07l-19.42,0c-3.73,0-7.25,2.93-7.88,6.66
			l-6.4,38.27c1.32-1.27,3.01-2.33,4.86-2.98C48.78,72.39,53.45,74.54,54.87,79.18z"/>
	</g>
	<g>
		<path class="st0" d="M231.64,104.81h5.04l4.13,22.69h-4.55l-0.78-5.2h-9.65l-2.89,5.2h-5.04L231.64,104.81z M227.84,118.72h7.02
			l-1.43-9.88h-0.13L227.84,118.72z"/>
		<path class="st0" d="M254.91,104.81h6.73c3.54,0,6.86,1.3,6.86,5.43c0,2.76-2.21,4.97-4.84,5.39v0.07
			c2.54,0.39,3.64,2.34,3.64,4.78c0,6.5-7.28,7.02-10.66,7.02h-6.47L254.91,104.81z M255.26,123.92h1.56c2.8,0,5.92-0.33,5.92-3.83
			c0-2.37-2.21-2.73-4.65-2.73h-1.46L255.26,123.92z M257.35,113.98h1.79c2.31,0,4.81-0.65,4.81-3.32c0-2.18-2.08-2.27-3.8-2.27
			h-1.59L257.35,113.98z"/>
		<path class="st0" d="M273.33,120.48c0,3.09,1.66,4.23,4.65,4.23c1.79,0,3.51-0.45,5.14-1.2l-0.55,3.45
			c-1.69,0.52-3.54,0.94-5.33,0.94c-4.81,0-8.06-2.34-8.06-7.31c0-5.2,4.03-10.21,9.52-10.21c4.13,0,6.86,2.11,6.86,6.37
			c0,1.27-0.16,2.5-0.42,3.74H273.33z M281.29,117.49c0.07-0.39,0.1-0.75,0.1-1.14c0-1.79-0.94-2.8-2.76-2.8
			c-2.7,0-3.87,1.63-4.71,3.93H281.29z"/>
		<path class="st0" d="M288.65,113c0.13-0.72,0.26-1.46,0.39-2.24h4.16l-0.58,3.15h0.06c0.78-1.82,2.93-3.54,4.94-3.54
			c0.55,0,1.14,0.03,1.66,0.16l-0.91,4.26c-0.49-0.16-1.1-0.26-1.66-0.26c-3.09,0-4.58,2.76-5.14,5.46l-1.56,7.51h-4.36L288.65,113z
			"/>
		<path class="st0" d="M302.01,103.12h4.36l-2.89,13.72h0.06l6.08-6.08h5.66l-8.03,7.64l5.04,9.1h-4.91l-4.32-8.87h-0.06l-1.88,8.87
			h-4.26L302.01,103.12z"/>
		<path class="st0" d="M326.52,114.34c-1.14-0.42-2.34-0.78-3.58-0.78c-1.3,0-2.92,0.36-2.92,1.69c0,2.11,5.66,2.89,5.66,6.99
			c0,4.36-3.8,5.66-7.54,5.66c-1.75,0-3.51-0.26-5.1-1.01l0.94-3.48c1.24,0.68,2.47,1.3,4.16,1.3c1.46,0,2.99-0.49,2.99-1.85
			c0-2.7-5.66-2.96-5.66-7.15c0-3.93,3.8-5.33,7.25-5.33c1.59,0,3.22,0.29,4.75,0.68L326.52,114.34z"/>
		<path class="st0" d="M331.96,103.12h4.36l-2.08,9.26h0.06c1.2-1.1,2.86-2.01,4.75-2.01c3.28,0,5.46,2.05,5.46,5.36
			c0,1.27-0.33,2.6-0.55,3.64l-1.75,8.13h-4.35l1.63-7.9c0.23-1.14,0.49-2.28,0.49-3.51c0-1.4-0.98-2.34-2.37-2.34
			c-3.02,0-4.13,2.83-4.68,5.33l-1.79,8.42h-4.36L331.96,103.12z"/>
		<path class="st0" d="M348.68,110.76h4.36l-3.58,16.74h-4.36L348.68,110.76z M350.27,103.54h4.36l-0.91,4.16h-4.35L350.27,103.54z"
			/>
		<path class="st0" d="M355.69,113c0.13-0.72,0.26-1.46,0.39-2.24h4.16l-0.58,3.15h0.06c0.78-1.82,2.93-3.54,4.94-3.54
			c0.55,0,1.14,0.03,1.66,0.16l-0.91,4.26c-0.49-0.16-1.1-0.26-1.66-0.26c-3.09,0-4.58,2.76-5.14,5.46l-1.56,7.51h-4.35L355.69,113z
			"/>
		<path class="st0" d="M368.81,120.48c0,3.09,1.66,4.23,4.65,4.23c1.79,0,3.51-0.45,5.14-1.2l-0.55,3.45
			c-1.69,0.52-3.54,0.94-5.33,0.94c-4.81,0-8.06-2.34-8.06-7.31c0-5.2,4.03-10.21,9.52-10.21c4.13,0,6.86,2.11,6.86,6.37
			c0,1.27-0.16,2.5-0.42,3.74H368.81z M376.77,117.49c0.06-0.39,0.1-0.75,0.1-1.14c0-1.79-0.94-2.8-2.76-2.8
			c-2.7,0-3.87,1.63-4.71,3.93H376.77z"/>
		<path class="st0" d="M394.19,104.81h4.55l-1.92,9.17h9.17l1.92-9.17h4.55l-4.75,22.69h-4.55l2.08-9.95h-9.16l-2.08,9.95h-4.55
			L394.19,104.81z"/>
		<path class="st0" d="M422.01,124.93h-0.07c-1.5,1.88-2.99,2.96-5.39,2.96c-3.02,0-5.17-1.69-5.17-4.78
			c0-5.53,6.17-5.95,10.27-5.95h1.53c0.13-0.46,0.13-0.94,0.13-1.43c0-1.69-1.82-2.18-3.35-2.18c-1.92,0-3.77,0.49-5.49,1.3
			l0.62-3.48c1.85-0.65,3.74-1.01,5.69-1.01c3.35,0,6.5,1.23,6.5,5.17c0,2.24-1.66,8.81-2.05,11.96h-3.67L422.01,124.93z
			 M417.75,124.7c3.25,0,4.26-2.24,4.94-4.94h-1.53c-2.11,0-5.62,0.36-5.62,3.19C415.54,124.12,416.65,124.7,417.75,124.7z"/>
		<path class="st0" d="M429.31,110.76h3.15l0.75-3.45l4.68-1.53l-1.07,4.97h3.9l-0.68,3.19h-3.9l-1.59,7.31
			c-0.1,0.39-0.2,0.97-0.2,1.63c0,1.01,0.68,1.63,1.66,1.63c0.78,0,1.56-0.16,2.11-0.39l-0.75,3.38c-0.75,0.16-1.59,0.39-2.34,0.39
			c-2.96,0-5.04-1.17-5.04-4.39c0-1.3,0.26-2.57,0.55-3.9l1.24-5.66h-3.15L429.31,110.76z"/>
		<path class="st0" d="M443.87,103.12h4.36l-2.08,9.26h0.06c1.2-1.1,2.86-2.01,4.75-2.01c3.28,0,5.46,2.05,5.46,5.36
			c0,1.27-0.32,2.6-0.55,3.64l-1.76,8.13h-4.35l1.63-7.9c0.23-1.14,0.49-2.28,0.49-3.51c0-1.4-0.97-2.34-2.37-2.34
			c-3.02,0-4.13,2.83-4.68,5.33l-1.79,8.42h-4.36L443.87,103.12z"/>
		<path class="st0" d="M467.55,124.93h-0.07c-1.5,1.88-2.99,2.96-5.39,2.96c-3.02,0-5.17-1.69-5.17-4.78
			c0-5.53,6.17-5.95,10.27-5.95h1.53c0.13-0.46,0.13-0.94,0.13-1.43c0-1.69-1.82-2.18-3.35-2.18c-1.92,0-3.77,0.49-5.49,1.3
			l0.62-3.48c1.85-0.65,3.74-1.01,5.69-1.01c3.35,0,6.5,1.23,6.5,5.17c0,2.24-1.66,8.81-2.05,11.96h-3.67L467.55,124.93z
			 M463.29,124.7c3.25,0,4.26-2.24,4.94-4.94h-1.53c-2.11,0-5.62,0.36-5.62,3.19C461.08,124.12,462.19,124.7,463.29,124.7z"/>
		<path class="st0" d="M474.57,110.76h4.35l1.2,12.58h0.06l6.14-12.58h4.84l0.91,12.58h0.07l6.43-12.58h4.45l-9.3,16.74h-4.91
			l-0.94-12.81h-0.07l-6.11,12.81h-4.94L474.57,110.76z"/>
		<path class="st0" d="M511.11,124.93h-0.07c-1.5,1.88-2.99,2.96-5.39,2.96c-3.02,0-5.17-1.69-5.17-4.78
			c0-5.53,6.17-5.95,10.27-5.95h1.53c0.13-0.46,0.13-0.94,0.13-1.43c0-1.69-1.82-2.18-3.35-2.18c-1.92,0-3.77,0.49-5.49,1.3
			l0.62-3.48c1.85-0.65,3.74-1.01,5.69-1.01c3.35,0,6.5,1.23,6.5,5.17c0,2.24-1.66,8.81-2.05,11.96h-3.67L511.11,124.93z
			 M506.85,124.7c3.25,0,4.26-2.24,4.94-4.94h-1.53c-2.11,0-5.62,0.36-5.62,3.19C504.64,124.12,505.75,124.7,506.85,124.7z"/>
		<path class="st0" d="M522.31,110.76l1.56,12.45h0.06l6.66-12.45h4.78l-11.34,19.27c-1.33,2.28-2.99,4.68-6.66,4.68
			c-1.1,0-2.18-0.16-3.25-0.46l0.98-3.31c0.52,0.2,1.04,0.39,1.92,0.39c1.3,0,2.28-0.65,3.8-3.02l-2.96-17.55H522.31z"/>
		<path class="st0" d="M561.31,109.33c-1.04-0.71-2.76-1.33-5.2-1.33c-5.04,0-8.58,3.8-8.58,9.13c0,3.8,2.47,7.18,6.47,7.18
			c1.92,0,3.48-0.62,4.78-1.4l-0.71,4.36c-1.66,0.46-3.41,0.62-5.14,0.62c-6.86,0-10.14-4.62-10.14-10.76
			c0-7.31,4.97-12.71,13-12.71c2.28,0,4.68,0.29,6.66,1.11L561.31,109.33z"/>
		<path class="st0" d="M577.85,117.71c0,5.88-4.06,10.17-9.98,10.17c-4.75,0-7.6-2.92-7.6-7.64c0-5.59,4.29-9.88,9.91-9.88
			C574.7,110.37,577.85,113.1,577.85,117.71z M573.3,117.75c0-2.18-0.75-4-3.31-4c-3.45,0-5.17,3.8-5.17,6.83
			c0,2.21,0.91,3.93,3.41,3.93C571.61,124.51,573.3,120.61,573.3,117.75z"/>
		<path class="st0" d="M581.18,112.61c0.13-0.65,0.26-1.33,0.36-1.85h4.06l-0.39,2.24h0.07c1.17-1.72,3.09-2.63,5.13-2.63
			c1.98,0,4.03,1.17,4.26,3.18h0.07c1.1-2.18,3.54-3.18,5.88-3.18c2.5,0,4.65,2.05,4.65,4.58c0,1.5-0.39,3.19-0.75,4.55l-1.75,8
			h-4.36l1.76-8.16c0.23-1.01,0.55-2.57,0.55-3.58c0-1.23-0.94-2.01-2.05-2.01c-3.02,0-3.77,3.51-4.32,5.79l-1.72,7.96h-4.35
			l1.75-8.16c0.23-1.01,0.55-2.57,0.55-3.58c0-1.23-0.94-2.01-2.05-2.01c-2.96,0-3.77,3.54-4.32,5.79l-1.72,7.96h-4.36
			L581.18,112.61z"/>
		<path class="st0" d="M608.71,112.94c0.16-0.81,0.29-1.46,0.36-2.18h4.13l-0.49,2.21h0.07c1.27-1.79,2.83-2.6,5.04-2.6
			c4.16,0,6.14,2.83,6.14,6.79c0,5.23-2.89,10.72-8.71,10.72c-1.92,0-3.9-0.65-4.62-2.99h-0.06l-1.92,9.42h-4.36L608.71,112.94z
			 M616.35,113.75c-2.96,0-4.62,3.9-4.62,6.83c0,2.15,0.75,3.93,2.86,3.93c3.64,0,4.81-4.55,4.81-7.18
			C619.4,115.28,618.36,113.75,616.35,113.75z"/>
		<path class="st0" d="M634.88,124.93h-0.07c-1.5,1.88-2.99,2.96-5.39,2.96c-3.02,0-5.17-1.69-5.17-4.78
			c0-5.53,6.17-5.95,10.27-5.95h1.53c0.13-0.46,0.13-0.94,0.13-1.43c0-1.69-1.82-2.18-3.35-2.18c-1.92,0-3.77,0.49-5.49,1.3
			l0.62-3.48c1.85-0.65,3.74-1.01,5.69-1.01c3.35,0,6.5,1.23,6.5,5.17c0,2.24-1.66,8.81-2.05,11.96h-3.67L634.88,124.93z
			 M630.62,124.7c3.25,0,4.26-2.24,4.94-4.94h-1.53c-2.11,0-5.62,0.36-5.62,3.19C628.41,124.12,629.51,124.7,630.62,124.7z"/>
		<path class="st0" d="M643.85,113.17c0.19-1.01,0.36-1.88,0.42-2.41h4.26l-0.29,1.63h0.06c1.2-1.1,2.86-2.01,4.75-2.01
			c3.28,0,5.46,2.05,5.46,5.36c0,1.27-0.32,2.6-0.55,3.64l-1.75,8.13h-4.36l1.63-7.9c0.23-1.14,0.49-2.28,0.49-3.51
			c0-1.4-0.97-2.34-2.37-2.34c-3.02,0-4.13,2.83-4.68,5.33l-1.79,8.42h-4.36L643.85,113.17z"/>
		<path class="st0" d="M664.42,110.76l1.56,12.45h0.06l6.66-12.45h4.78l-11.34,19.27c-1.33,2.28-2.99,4.68-6.66,4.68
			c-1.1,0-2.18-0.16-3.25-0.46l0.98-3.31c0.52,0.2,1.04,0.39,1.92,0.39c1.3,0,2.28-0.65,3.8-3.02l-2.96-17.55H664.42z"/>
	</g>
	<line class="st1" x1="224.26" y1="95.66" x2="677.89" y2="95.66"/>
</g>
</svg>
