<svg xmlns="http://www.w3.org/2000/svg" width="247" height="115" viewbox="0 0 247 115"><defs><style>.cls-1{fill:none}.cls-2{fill:#1d335c}</style></defs><g id="Layer_2" data-name="Layer 2"><g id="Layer_1-2" data-name="Layer 1"><path class="cls-1" d="M0 0h247v115H0z"/><path class="cls-2" d="M71.61 72.54h2.16l1.35 5.09.37 2.78.41-2.78 1.38-5.09h2.27v8.56h-1.66v-3.34l.32-4.5-.68 3.21-1.26 4.63h-1.73l-1.21-4.58-.65-3.26.3 4.51v3.33h-1.37zM82.94 72.54h1.67v7.26h3.26v1.3h-4.93zM90.41 72.54h2.17l1.34 5.09.37 2.78.41-2.78 1.39-5.09h2.26v8.56h-1.66v-3.34l.32-4.5-.67 3.21-1.27 4.63h-1.73l-1.21-4.58-.65-3.26.31 4.51v3.33h-1.38zM101.56 72.54h1.67v8.56h-1.67zM106 76.8c0-2.51 1-4.42 3.6-4.42a5 5 0 0 1 2.17.46l-.17 1.33a6.24 6.24 0 0 0-2.06-.39c-1 0-1.76.5-1.76 2.69V77c0 2.28.71 3 1.8 3a4.66 4.66 0 0 0 2-.53l.34 1.26a5.45 5.45 0 0 1-2.39.58c-2.62-.03-3.53-2-3.53-4.51zM120.37 72.54h1.68v8.56h-1.68zM127.37 74.29a2.61 2.61 0 0 1 1.18-.26c1.21 0 1.88.73 1.88 2.23v4.84h-1.54v-5c0-.6-.33-.84-.88-.84a2.61 2.61 0 0 0-1.31.4v5.44h-1.54v-6.93h1l.5.91zM133.22 80.83l.15-1.09a4.37 4.37 0 0 0 1.73.4c.83 0 1.24-.24 1.24-.91s-.33-.71-1.53-1a1.89 1.89 0 0 1-1.67-2.07c0-1.47 1-2.12 2.44-2.12a4.37 4.37 0 0 1 2 .4l-.22 1.12a4.84 4.84 0 0 0-1.6-.29c-.83 0-1.17.17-1.17.82s.37.69 1.45 1 1.81.76 1.81 2.1-.84 2.14-2.52 2.14a4.43 4.43 0 0 1-2.11-.5zM143.94 74.17h1.54v6.93h-1l-.5-.87-.62.79a3.47 3.47 0 0 1-1.24.23c-1.2 0-1.87-.75-1.87-2.24v-4.84h1.54v5c0 .72.33 1 .87 1a2.3 2.3 0 0 0 1.3-.4zM150.66 74.24a2.21 2.21 0 0 1 1-.21 1.39 1.39 0 0 1 .84.22l-.26 1.38a2.19 2.19 0 0 0-1-.17 2.75 2.75 0 0 0-1.26.35v5.29h-1.54v-6.93h1l.51 1zM158.05 76.29c0-.57-.23-1-1-1a6.72 6.72 0 0 0-2.11.46l-.22-1.16a5.7 5.7 0 0 1 2.47-.6c1.72 0 2.38.77 2.38 2.8v3c0 .33.13.41.39.41h.32v.68a1.31 1.31 0 0 1-.91.3 2.3 2.3 0 0 1-.71-.1l-.57-.78-.52.66a2.9 2.9 0 0 1-1.22.25 1.79 1.79 0 0 1-1.94-2c0-1.46.73-2 2.59-2.22l1-.14zm0 1.53l-.91.14c-.89.11-1.23.38-1.23 1.17v.1c0 .71.38 1 1 1a1.45 1.45 0 0 0 1.1-.44zM165 74.29a2.6 2.6 0 0 1 1.17-.26c1.22 0 1.89.73 1.89 2.23v4.84h-1.54v-5c0-.6-.33-.84-.89-.84a2.54 2.54 0 0 0-1.3.4v5.44h-1.55v-6.93h1l.5.91zM170.18 77.64c0-2.38 1-3.61 2.84-3.61a4.45 4.45 0 0 1 2 .43l-.24 1.16a5.36 5.36 0 0 0-1.61-.32c-.9 0-1.36.37-1.36 2.18v.25c0 1.83.46 2.33 1.36 2.33a4.27 4.27 0 0 0 1.7-.43l.2 1.14a4.18 4.18 0 0 1-2 .51c-1.91 0-2.89-1.28-2.89-3.64zM180.32 80.06a5.11 5.11 0 0 0 1.84-.43l.21 1.13a4.78 4.78 0 0 1-2.16.52c-2 0-3-1.26-3-3.64S178.3 74 180 74s2.58 1.25 2.58 3.27v.83h-3.83c.06 1.5.47 1.96 1.57 1.96zm.85-3v-.24c0-1.27-.34-1.72-1.12-1.72s-1.2.43-1.25 2zM189.68 76.8c0-2.51 1-4.42 3.6-4.42a5 5 0 0 1 2.17.46l-.17 1.33a6.18 6.18 0 0 0-2.05-.39c-1.06 0-1.77.5-1.77 2.69V77c0 2.28.71 3 1.81 3a4.65 4.65 0 0 0 2-.53l.34 1.26a5.37 5.37 0 0 1-2.38.58c-2.63-.03-3.55-2-3.55-4.51zM197.76 77.65c0-2.34 1.1-3.62 2.9-3.62s2.88 1.28 2.88 3.58-1.07 3.67-2.88 3.67-2.9-1.28-2.9-3.63zm4.18.13v-.23c0-1.88-.39-2.33-1.28-2.33s-1.3.45-1.3 2.26v.25c0 1.86.43 2.38 1.3 2.38s1.28-.52 1.28-2.33zM211.53 74.29a2.65 2.65 0 0 1 1.16-.26c1.2 0 1.86.73 1.86 2.23v4.84H213v-5c0-.62-.31-.84-.86-.84a2.24 2.24 0 0 0-1.21.4v5.44h-1.55v-5c0-.62-.34-.84-.86-.84a2.43 2.43 0 0 0-1.21.38v5.46h-1.54v-6.93h1l.51.88.67-.76a2.74 2.74 0 0 1 2.33 0l.53.81zM219.32 74.25a2.46 2.46 0 0 1 1.1-.22c1.56 0 2.33 1.3 2.33 3.61s-.74 3.44-2.43 3.44a2.68 2.68 0 0 1-1.61-.52v2.67h-1.54v-9.06h1l.46.83zm.61 5.83c.86 0 1.24-.59 1.24-2.16v-.62c0-1.49-.4-2-1.2-2a2.53 2.53 0 0 0-1.26.37v4.03a2.38 2.38 0 0 0 1.22.38zM228.47 76.29c0-.57-.22-1-1-1a6.84 6.84 0 0 0-2.11.46l-.21-1.16a5.7 5.7 0 0 1 2.47-.6c1.71 0 2.37.77 2.37 2.8v3c0 .33.13.41.4.41h.32v.68a1.31 1.31 0 0 1-.91.3 2.3 2.3 0 0 1-.71-.1l-.57-.78-.52.7a2.9 2.9 0 0 1-1.22.25 1.79 1.79 0 0 1-1.94-2c0-1.46.73-2 2.59-2.22l1-.14zm0 1.53l-.91.14c-.88.11-1.22.38-1.22 1.17v.1c0 .71.38 1 1 1a1.41 1.41 0 0 0 1.09-.44zM235.05 74.29a2.61 2.61 0 0 1 1.18-.26c1.21 0 1.88.73 1.88 2.23v4.84h-1.54v-5c0-.6-.33-.84-.88-.84a2.58 2.58 0 0 0-1.31.4v5.44h-1.54v-6.93h1l.5.91zM242.46 80.85l-2.27-6.68h1.59l1.09 3.59.32 2.17.37-2.17 1.07-3.59h1.43l-2.88 9.06h-1.47zM4.73 107c0-.57-.22-1-1-1a7 7 0 0 0-2.13.47l-.21-1.17a5.74 5.74 0 0 1 2.48-.61c1.73 0 2.4.78 2.4 2.82v3.06c0 .33.13.41.39.41H7v.69a1.37 1.37 0 0 1-.92.3 2.65 2.65 0 0 1-.71-.1l-.58-.78-.53.66a2.87 2.87 0 0 1-1.22.25 1.8 1.8 0 0 1-1.95-2c0-1.47.73-2 2.6-2.24l1-.13zm0 1.55l-.91.13c-.89.12-1.24.38-1.24 1.18v.1a.91.91 0 0 0 1 1 1.38 1.38 0 0 0 1.1-.45zM17.62 103.24h2.89c1.76 0 3 .6 3 2.29a1.9 1.9 0 0 1-1.67 1.89 2.06 2.06 0 0 1 1.9 2.06c0 1.67-1.19 2.37-3.07 2.37h-3zm2.92 3.69c.87 0 1.26-.29 1.26-1.13v-.19c0-.81-.42-1.09-1.4-1.09h-1.09v2.41zm0 3.65c1 0 1.41-.31 1.41-1.18v-.23c0-.88-.39-1.17-1.37-1.17h-1.27v2.58zM30.58 110.81a5 5 0 0 0 1.86-.44l.21 1.14a4.73 4.73 0 0 1-2.18.53c-2 0-3-1.27-3-3.67s1.12-3.64 2.87-3.64 2.6 1.26 2.6 3.3v.83H29c.06 1.49.48 1.95 1.58 1.95zm.86-3v-.24c0-1.29-.34-1.74-1.13-1.74s-1.21.44-1.26 2zM39.37 104.94a2.21 2.21 0 0 1 1-.21 1.39 1.39 0 0 1 .85.23l-.26 1.39a2.24 2.24 0 0 0-1-.18 2.71 2.71 0 0 0-1.26.36v5.32h-1.59v-7h1l.5 1zM46.58 111.85H45v-9.5h1.55v3.9l-.25 2 2.47-3.41h1.64L48 108l.92.8 1.65 3h-1.69l-1.68-3.2-.62.9zM53.75 111.59l.16-1.1a4.42 4.42 0 0 0 1.74.4c.84 0 1.25-.24 1.25-.92s-.33-.71-1.54-1a1.91 1.91 0 0 1-1.69-2.08c0-1.49 1-2.15 2.46-2.15a4.41 4.41 0 0 1 2 .41l-.23 1.13a4.6 4.6 0 0 0-1.6-.29c-.84 0-1.19.17-1.19.82s.37.7 1.46 1 1.82.77 1.82 2.12-.85 2.07-2.55 2.07a4.53 4.53 0 0 1-2.09-.41zM64 111.85h-1.54v-9.5H64v3.41l.68-.76a2.6 2.6 0 0 1 1.18-.27c1.23 0 1.9.74 1.9 2.25v4.87h-1.54v-5c0-.61-.33-.84-.89-.84a2.6 2.6 0 0 0-1.32.39zM72.27 103a.93.93 0 0 1 1.85 0 .93.93 0 0 1-1.85 0zm.15 1.87H74v7h-1.58zM81 104.94a2.26 2.26 0 0 1 1-.21 1.44 1.44 0 0 1 .85.23l-.27 1.39a2.22 2.22 0 0 0-1-.18 2.64 2.64 0 0 0-1.26.36v5.32h-1.58v-7h1l.5 1zM89.22 110.81a5.07 5.07 0 0 0 1.86-.44l.21 1.14a4.77 4.77 0 0 1-2.18.53c-2 0-3-1.27-3-3.67s1.11-3.64 2.87-3.64 2.6 1.26 2.6 3.3v.83h-3.9c.02 1.49.43 1.95 1.54 1.95zm.86-3v-.24c0-1.29-.35-1.74-1.13-1.74s-1.21.44-1.26 2zM104.35 108.11v3.74h-1.71v-8.61h1.71v3.54h2.91v-3.54H109v8.61h-1.7v-3.74zM116.14 107c0-.57-.23-1-1-1a7 7 0 0 0-2.13.47l-.21-1.17a5.78 5.78 0 0 1 2.49-.61c1.72 0 2.39.78 2.39 2.82v3.06c0 .33.13.41.4.41h.32v.69a1.33 1.33 0 0 1-.91.3 2.66 2.66 0 0 1-.72-.1l-.57-.78-.53.66a3 3 0 0 1-1.23.25 1.8 1.8 0 0 1-1.95-2c0-1.47.73-2 2.6-2.24l1-.13zm0 1.55l-.92.13c-.89.12-1.24.38-1.24 1.18v.1a.91.91 0 0 0 1 1 1.42 1.42 0 0 0 1.11-.45zM122.16 110v-4h-.81v-1.08h.93L123 103h.69v1.9h1.51v1.1h-1.51v4.35c0 .45.16.58.67.58h1l.08.83a3.92 3.92 0 0 1-1.48.29c-1.25-.05-1.8-.74-1.8-2.05zM130.71 111.85h-1.56v-9.5h1.56v3.41l.68-.76a2.6 2.6 0 0 1 1.18-.27c1.22 0 1.9.74 1.9 2.25v4.87h-1.56v-5c0-.61-.33-.84-.89-.84a2.59 2.59 0 0 0-1.31.39zM142 107c0-.57-.23-1-1-1a6.88 6.88 0 0 0-2.12.47l-.22-1.17a5.78 5.78 0 0 1 2.49-.61c1.73 0 2.39.78 2.39 2.82v3.06c0 .33.13.41.4.41h.32v.69a1.37 1.37 0 0 1-.92.3 2.72 2.72 0 0 1-.72-.1l-.57-.78-.53.66a2.94 2.94 0 0 1-1.22.25 1.8 1.8 0 0 1-2-2c0-1.47.73-2 2.61-2.24l1-.13zm0 1.55l-.92.13c-.89.12-1.23.38-1.23 1.18v.1c0 .72.38 1 1 1a1.41 1.41 0 0 0 1.1-.45zM146.71 104.88h1.61l.75 3.59.2 2.42.43-2.82.76-3.19H152l.73 3.19.4 2.82.2-2.42.78-3.59h1.4l-1.74 7h-1.54l-.72-3.16-.32-2.6-.35 2.6-.77 3.16h-1.55zM161.75 107c0-.57-.23-1-1-1a7 7 0 0 0-2.13.47l-.21-1.17a5.78 5.78 0 0 1 2.49-.61c1.72 0 2.39.78 2.39 2.82v3.06c0 .33.13.41.4.41h.31v.69a1.33 1.33 0 0 1-.91.3 2.66 2.66 0 0 1-.72-.1l-.57-.78-.53.66a3 3 0 0 1-1.23.25 1.8 1.8 0 0 1-1.95-2c0-1.47.73-2 2.6-2.24l1-.13zm0 1.55l-.92.13c-.89.12-1.23.38-1.23 1.18v.1a.91.91 0 0 0 1 1 1.42 1.42 0 0 0 1.11-.45zM169 111.6l-2.29-6.72h1.6l1.1 3.61.32 2.19.37-2.19 1.08-3.61h1.44l-2.94 9.12h-1.47zM182.34 108.37c0-2.39 1-3.64 2.87-3.64a4.48 4.48 0 0 1 2 .44l-.24 1.16a5.4 5.4 0 0 0-1.62-.31c-.91 0-1.37.37-1.37 2.19v.26c0 1.84.46 2.34 1.37 2.34a4.16 4.16 0 0 0 1.71-.44l.2 1.15a4.1 4.1 0 0 1-2 .52c-1.92-.04-2.92-1.3-2.92-3.67zM190.92 108.39c0-2.36 1.1-3.66 2.92-3.66s2.9 1.3 2.9 3.62-1.08 3.69-2.9 3.69-2.92-1.34-2.92-3.65zm4.21.13v-.24c0-1.89-.4-2.34-1.29-2.34s-1.32.45-1.32 2.27v.26c0 1.86.44 2.39 1.32 2.39s1.29-.53 1.29-2.34zM206.29 105a2.69 2.69 0 0 1 1.17-.27c1.21 0 1.88.74 1.88 2.25v4.87h-1.56v-5c0-.62-.3-.84-.86-.84a2.26 2.26 0 0 0-1.22.39v5.48h-1.56v-5c0-.62-.34-.84-.86-.84a2.34 2.34 0 0 0-1.22.38v5.49h-1.56v-7h1l.51.88.68-.76a2.69 2.69 0 0 1 2.35 0l.53.82zM215.43 105a2.48 2.48 0 0 1 1.1-.23c1.58 0 2.35 1.31 2.35 3.64s-.74 3.47-2.44 3.47a2.62 2.62 0 0 1-1.62-.53V114h-1.56v-9.12h1l.47.83zm.61 5.88c.86 0 1.25-.6 1.25-2.19V108c0-1.5-.4-2-1.21-2a2.38 2.38 0 0 0-1.26.37v4.1a2.38 2.38 0 0 0 1.18.37zM225.49 107c0-.57-.23-1-1-1a6.88 6.88 0 0 0-2.12.47l-.21-1.17a5.7 5.7 0 0 1 2.48-.61c1.73 0 2.39.78 2.39 2.82v3.06c0 .33.14.41.4.41h.32v.69a1.37 1.37 0 0 1-.92.3 2.72 2.72 0 0 1-.72-.1l-.57-.78-.53.66a2.9 2.9 0 0 1-1.22.25 1.8 1.8 0 0 1-2-2c0-1.47.73-2 2.61-2.24l1-.13zm0 1.55l-.92.13c-.89.12-1.23.38-1.23 1.18v.1c0 .72.38 1 1 1a1.4 1.4 0 0 0 1.1-.45zM233.81 105a2.68 2.68 0 0 1 1.19-.27c1.22 0 1.9.74 1.9 2.25v4.87h-1.56v-5c0-.61-.33-.84-.89-.84a2.66 2.66 0 0 0-1.32.39v5.48h-1.55v-7h1l.51.91zM242.45 111.6l-2.28-6.72h1.59l1.11 3.61.32 2.19.37-2.19 1.07-3.61h1.45l-2.91 9.12h-1.47zM29.18 91.79h216.9v.77H29.18zM1 91.78h18.84v.78H1zM114.09 57.86V30c0-2.95.29-4.93.88-6.07l.88-1.67h-9L94 52.83 81.09 22.26h-9.64l1 1.73c.71 1.18.79 4 .79 6v27.87c0 2-.08 4.77-.79 6l-1 1.73h11.49l-1-1.72c-.65-1.1-.75-3.27-.8-6l-.41-19.46 11.66 27.84h2.78l11.54-28-.46 19.57c0 2.56-.15 4.63-.88 6l-.87 1.67h11.39l-.89-1.64c-.62-1.07-.91-3.03-.91-5.99zM138.47 58.62h-8.57V28.16a8.93 8.93 0 0 1 .78-4.26l.79-1.64h-11.19l.76 1.63a9.15 9.15 0 0 1 .78 4.27v32.73a6.09 6.09 0 0 1-.7 3l-.91 1.74 2-.06 2.43-.09h1c6 0 10.19.22 12.42.34.87 0 1.44.08 1.77.08.85 0 3.09 0 3.62-2.14l1.6-6.87-2.11.94a10.16 10.16 0 0 1-4.47.79zM190.34 57.86V30c0-2.95.29-4.93.89-6.07l.87-1.67h-9l-12.86 30.57-12.9-30.57h-9.64l1 1.73c.71 1.18.79 4 .79 6v27.87c0 2-.08 4.77-.79 6l-1 1.73h11.49l-1-1.72c-.65-1.1-.75-3.27-.8-6L157 38.38l11.68 27.87h2.78l11.54-28-.46 19.57c-.05 2.56-.15 4.63-.88 6l-.87 1.67h11.39l-.92-1.69c-.63-1.02-.92-2.98-.92-5.94zM206.67 57.86V30c0-2.95.29-4.93.89-6.07l.87-1.67H196.8l.93 1.69c.73 1.34.81 4.09.81 6.05v27.86c0 3-.28 5-.82 6l-.88 1.67h11.63l-.92-1.69c-.55-1.06-.88-3.02-.88-5.98zM243.94 54.29c-2.28 3.19-5.79 4.81-10.45 4.81-8.17 0-13-5.71-13-15.26 0-9.84 4.5-15.25 12.68-15.25a13.44 13.44 0 0 1 9.22 3.24l1.32 1.29 2.06-6.4.05-.19a2.74 2.74 0 0 0 .12-.75c0-2.51-7.47-4.17-12.41-4.17-13.26 0-21.18 8.35-21.18 22.35 0 13.75 8 22.29 20.82 22.29C241 66.25 246 64 246 60.42v-9zM23.48 79.86v-7.49c-8.4-4.24-10.16-9.8-10.12-13.8A17.07 17.07 0 0 1 21.55 44a20.38 20.38 0 0 1 1.93-1.1V32.3l-2.65-1.16a21.58 21.58 0 0 1-4.72-2.74h-.05a15.12 15.12 0 0 1-4.78-6.15H1V81.1h21.34a13.09 13.09 0 0 1 1.14-1.24zM36.12 22.2v.17a21.77 21.77 0 0 1 2.24 1.19c5.88 3.22 9.39 8.49 9.39 14.08 0 5.9-3.65 11.37-9.52 14.27-.61.31-1.38.63-2.11.92V63.7c2.7 1.52 7.54 5 7.42 11.88a10.47 10.47 0 0 1-1.75 5.52h17.45V22.2z"/><path class="cls-1" d="M34.1 34.76v5.66a18.59 18.59 0 0 0 3.53-2.91.08.08 0 0 0 0-.11 11.25 11.25 0 0 0-3.53-2.64zM25.5 55.61a6.65 6.65 0 0 0-1.63 3.68c.5.39 1 .79 1.63 1.19z"/><path class="cls-2" d="M37.32 50.11c5.51-2.72 8.4-7.7 8.4-12.47 0-5.08-3.3-9.58-8.39-12.35a21.1 21.1 0 0 0-3.23-1.61v-9.14c3.8.9 8 .51 9.34-1.39A3.29 3.29 0 0 0 43.26 9S36.77.5 29.65 1c-7.41.24-16.16 6.14-17.12 15.92-.36 3.74 1.38 7.12 4.82 9.86a19.75 19.75 0 0 0 4.32 2.5c1.06.47 2.15 1 3.83 1.66v13.2a25.35 25.35 0 0 0-2.84 1.53 15.11 15.11 0 0 0-7.28 12.93c-.07 7.11 6.54 10.87 10.12 12.5v9.64a9.76 9.76 0 0 0-3.67 7.82v.11a.57.57 0 0 0 0 .13 9 9 0 0 0 4.08 6.94s-.64-2.07 1.07-5.67c1.43-3 3.72-3.21 8.72-6 2-1 5.76-4.12 5.84-8.5.11-5.9-4-8.87-7.42-10.64V51.44a32.23 32.23 0 0 0 3.2-1.33zm.31-12.6a18.59 18.59 0 0 1-3.53 2.91v-5.66a11.25 11.25 0 0 1 3.53 2.64.08.08 0 0 1 0 .11zm-10.07-16v-8.47l4.56 1.18-.12 8.83c-1.6-.49-3.09-1-4.48-1.48zm-2.06 34.1v4.87c-.59-.4-1.13-.8-1.63-1.19a6.65 6.65 0 0 1 1.63-3.68zM32 74.85v6.25h-4.44v-9c.52.28 1 .52 1.39.71A16 16 0 0 1 32 74.74zm7.49.48a7.31 7.31 0 0 1-1.93 4.38A13.5 13.5 0 0 0 32.68 73a56.89 56.89 0 0 0-7.33-4.17c-1.21-.68-7.42-3.11-8-9.06a9.2 9.2 0 0 1 .08-2.77c1.15 1.66 5.49 4.64 13.5 8.46 5.56 2.69 8.68 5.4 8.6 9.87zm-12-13.54V31.67c1.71.71 3.19 1.34 4.48 1.93v30.51a45 45 0 0 1-4.41-2.32zM24 28.08l-1.43-.62a17.13 17.13 0 0 1-3.87-2.23 9.54 9.54 0 0 1-4-8.12 11.72 11.72 0 0 1 1.26-5 15.53 15.53 0 0 0 5.64 8.17 23.69 23.69 0 0 0 7.87 4h.1a29.18 29.18 0 0 1 6.68 2.87h.06c4.56 2.48 7.4 6.22 7.22 10.48a14.61 14.61 0 0 1-.59 4 19.38 19.38 0 0 0-4.46-6.36c-2.89-2.48-10.77-5.59-14.48-7.19z"/></g></g></svg>