<svg xmlns="http://www.w3.org/2000/svg" viewBox="0 0 471.23 61.39"><rect width="471.23" height="61.39"/><rect width="52.25" height="61.39" style="fill:#fff"/><path d="M469.34,43.13c.6.3.42.83.49,1.28-.11.09-.23.06-.34.07-.28,0-.41-.07-.41-.37,0-.5-.15-.65-.61-.7-.15,0-.25,0-.26.21v.45a.44.44,0,0,1-.44.44h0a.43.43,0,0,1-.22-.06.28.28,0,0,1-.1-.24V41.75c0-.2.09-.26.27-.26H469a.9.9,0,0,1,.81.51C470,42.42,469.86,42.74,469.34,43.13Zm-1.13-.75c0,.42,0,.47.3.47s.55-.15.57-.39-.2-.4-.54-.42S468.18,42.15,468.21,42.38Z" style="fill:#fff"/><path d="M471.23,43.72c-.17.24-.22.53-.39.78a2.77,2.77,0,0,1-3.17,1,2.65,2.65,0,0,1-1.74-2.81,2.69,2.69,0,0,1,2.29-2.39A2.72,2.72,0,0,1,471.1,42c0,.08,0,.19.13.21Zm-2.62,1.46a2.2,2.2,0,1,0-2.2-2.2,2.19,2.19,0,0,0,2.2,2.2Z" style="fill:#fff"/><path d="M435.44,32.1v-13c0-.48,0-.48.5-.49h5.37c.45,0,.46,0,.46.47V39.85c0,.85-.1.76.73.76h19.13c.48,0,.49,0,.49.5V45.3c0,.43,0,.43-.44.44h-25.5c-.85,0-.75.12-.75-.72Z" style="fill:#fec530"/><path d="M416.94,45.74h-13.7a.28.28,0,0,1-.31-.25V19c0-.4,0-.41.41-.43h26.84c.55,0,.55,0,.55.55V22.7c0,.53,0,.54-.55.54H409.76c-.48,0-.48,0-.48.5v5c0,.51,0,.51.53.51h11.3c.77,0,.68-.07.68.69v3.41c0,.51,0,.51-.52.52H409.69c-.4,0-.41,0-.41.4v5.92c0,.3.1.41.39.38H430.3c.75,0,.68-.08.68.69v3.91c0,.52,0,.53-.51.53H416.94Z" style="fill:#fec530"/><path d="M384.51,45.74H371.09c-.69,0-.62,0-.62-.64V18.9c0-.21.07-.32.29-.31s.22,0,.33,0H397.6c.63,0,.67-.11.67.67v3.35c0,.65,0,.65-.63.65h-20c-.92,0-.8-.13-.8.8v4.75c0,.47,0,.48.5.48h11.41c.6,0,.6,0,.6.61v3.46c0,.54,0,.55-.55.55H377.6c-.88,0-.78-.12-.78.76V40c0,.57,0,.57.58.57H398c.55,0,.55,0,.55.55v4c0,.66.06.61-.59.61H384.51Z" style="fill:#fec530"/><path d="M354.4,18.59h13.45a.28.28,0,0,1,.29.27v4.29c0,.24-.09.34-.33.32H357.47a.28.28,0,0,0-.29.27V45c0,.84.1.72-.76.73H352c-.42,0-.43,0-.43-.44V24.05c0-.54,0-.55-.55-.55h-9.67c-.73,0-.67.06-.67-.66V19.18c0-.61,0-.59.56-.59Z" style="fill:#fec530"/><path d="M323.85,45.73h-9a10.29,10.29,0,0,1-3.35-.52,3.62,3.62,0,0,1-2.35-2.36,12.28,12.28,0,0,1-.45-4c0-.25.19-.29.37-.33l2.74-.56,2.07-.43c.34-.07.4,0,.4.32V40c0,.7-.06.68.71.68h18c.38,0,.39,0,.39-.42V34.87c0-.28-.07-.42-.37-.39H316.35a14,14,0,0,1-3.16-.34,3.73,3.73,0,0,1-3.07-3c-.06-.24-.12-.47-.16-.71a14.25,14.25,0,0,1-.19-2.44c0-1.44,0-2.87.06-4.3a8.31,8.31,0,0,1,.55-2.56,3.33,3.33,0,0,1,1.73-1.81,7.82,7.82,0,0,1,2.47-.63,24.43,24.43,0,0,1,2.57-.11h14.7a12.6,12.6,0,0,1,3.86.5,3.74,3.74,0,0,1,2.65,2.84,12.14,12.14,0,0,1,.32,2.82c0,.31-.14.41-.41.47l-4,.95c-.27.06-.54.14-.81.19s-.35,0-.35-.3V23.93c0-.71,0-.58-.58-.58h-16.9c-.28,0-.35.11-.35.36V28.8c0,.25.08.38.35.36h16.61a14.21,14.21,0,0,1,3.38.34,3.8,3.8,0,0,1,3.1,3.13,12.28,12.28,0,0,1,.3,2.26V40a10.78,10.78,0,0,1-.3,2.26,3.83,3.83,0,0,1-3.11,3.13,12.19,12.19,0,0,1-2.76.34Z" style="fill:#fec530"/><path d="M279.28,46.19a14.06,14.06,0,1,1,14.12-14v.08A14.08,14.08,0,0,1,279.28,46.19Zm0-8.62a5.44,5.44,0,1,0-5.43-5.46,5.45,5.45,0,0,0,5.43,5.46Z" style="fill:#fec530"/><path d="M262.57,22.44v3.3c0,.56,0,.56-.59.57s-1.38,0-2.07,0a6.39,6.39,0,0,0-4.71,2,5.33,5.33,0,0,0-1.4,3.27,5.64,5.64,0,0,0,1,4,6,6,0,0,0,3.69,2.23,15.84,15.84,0,0,0,3,.14c.33,0,.74-.14,1,.07s.1.67.1,1v6.4a.29.29,0,0,1-.29.29h0a44.4,44.4,0,0,1-6.42-.21,12.73,12.73,0,0,1-7.71-4.5A13.35,13.35,0,0,1,245,30.87a13.18,13.18,0,0,1,6.82-10.71,11.83,11.83,0,0,1,5.86-1.6H262c.5,0,.5,0,.51.54Z" style="fill:#fec530"/><path d="M226.76,36.59V28.43a16.52,16.52,0,0,1,.56-4.19A7,7,0,0,1,233,18.92a16.89,16.89,0,0,1,3.61-.37h5.53c.53,0,.54,0,.54.51v6.65c0,.45,0,.46-.47.46h-4.7a1.85,1.85,0,0,0-2,1.54,5,5,0,0,0-.21,1.43c0,.22.09.3.3.29H242c.71,0,.68-.09.68.64v5.76c0,.66,0,.61-.6.61h-6.54c-.18,0-.28.07-.27.27s0,.29,0,.44v8c0,.62,0,.59-.57.59h-7.43c-.49,0-.49,0-.49-.49V36.59Z" style="fill:#fec530"/><path d="M202.34,36.36c0-2.71-.07-5.44,0-8.15a10.17,10.17,0,0,1,5.13-8.86,9.64,9.64,0,0,1,4.09-1.23,11.66,11.66,0,0,1,4.2.33A9.49,9.49,0,0,1,222,23.77a11.36,11.36,0,0,1,1.1,5V45.42c0,.22-.08.31-.3.3H215c-.26,0-.4-.06-.37-.34a2.54,2.54,0,0,0,0-.39V38.08c0-.66.07-.61-.59-.61H212.5c-.47,0-.47,0-.47-.46V31c0-.43,0-.44.42-.44h1.9c.17,0,.31,0,.3-.24a17.19,17.19,0,0,0-.08-2.78,1.87,1.87,0,0,0-3.72.19V45.31c0,.42,0,.42-.45.43h-7.55c-.48,0-.49,0-.49-.49Z" style="fill:#fec530"/><path d="M135.93,28.42V19.09c0-.53,0-.54.51-.54h7.49c.48,0,.49,0,.49.5V36.32a3.81,3.81,0,0,0,.15,1.16,1.19,1.19,0,0,0,1.08.9c1.4.16,2-.33,2-1.75V19.26c0-.77-.06-.71.68-.71h7.33c.48,0,.48,0,.48.5V35.31a16.56,16.56,0,0,0,.1,1.73,1.33,1.33,0,0,0,1.29,1.37h.66a1.19,1.19,0,0,0,1.15-1,4.57,4.57,0,0,0,.14-1.22V19c0-.42,0-.43.45-.43h7.6c.44,0,.44,0,.44.49V36.88a9.8,9.8,0,0,1-.89,4.23,8.34,8.34,0,0,1-5.52,4.61,10.45,10.45,0,0,1-5.89.17A8.1,8.1,0,0,1,152.32,44c-.31-.29-.26-.39-.69,0a8.28,8.28,0,0,1-5.69,2.23,11.68,11.68,0,0,1-4.74-.89,8.42,8.42,0,0,1-5.15-6.61,10.58,10.58,0,0,1-.12-1.78Z" style="fill:#fec530"/><path d="M117.64,25.62c.24.45,5.69,7,6.16,7.36a4,4,0,0,0,.46-3.2,6.51,6.51,0,0,0-.36-1.05c-.16-.37-.16-.38.21-.58l2.67-1.39,2.87-1.5c.42-.21.39-.26.62.18a11,11,0,0,1-.21,11.33,20.82,20.82,0,0,1-1.17,1.77c-.29.4-.29.4,0,.8q2.49,3,5,6.11l.13.18c-.08.18-.23.1-.35.1h-8.83a.76.76,0,0,1-.7-.35c-.28-.39-.6-.75-.89-1.14s-.31-.24-.55-.09A12.92,12.92,0,0,1,117.54,46a12.14,12.14,0,0,1-8.4-1.44,9.45,9.45,0,0,1-4.78-7,9.62,9.62,0,0,1,3.19-9.07c.5-.43,1-.83,1.53-1.27a2.22,2.22,0,0,0-.47-.59,10.12,10.12,0,0,1-1.33-1.72,3.91,3.91,0,0,1,1.16-5.25,6.19,6.19,0,0,1,3.18-1.11H124.4c.22,0,.31.1.29.31a1.82,1.82,0,0,0,0,.33V25c0,.69.06.62-.64.62Zm.27,12.2v-.1c-1.27-1.55-2.58-3.09-3.91-4.64-.23-.28-.27-.27-.54,0a3.1,3.1,0,0,0-.34,4.31A3.89,3.89,0,0,0,117.91,37.82Z" style="fill:#fec530"/><path d="M69,28.17V18.89a.32.32,0,0,1,.3-.34h7.6c.56,0,.56,0,.56.59V35.51a13.61,13.61,0,0,0,.1,1.56,1.33,1.33,0,0,0,1.3,1.34h.64a1.16,1.16,0,0,0,1.09-.9,4.93,4.93,0,0,0,.17-1.38V19.23c0-.72-.08-.68.65-.68H89q.31,0,.3.3V36.18a5.08,5.08,0,0,0,.12,1.1,1.24,1.24,0,0,0,1.27,1.11h.11c1.19,0,1.66-.38,1.77-1.57.05-.58.06-1.15.06-1.73V19.23c0-.75-.06-.68.7-.68h7.5c.21,0,.3.1.29.31V37a8.85,8.85,0,0,1-2.71,6.63A9.09,9.09,0,0,1,93.7,46a11.26,11.26,0,0,1-3.84.15A8.35,8.35,0,0,1,85.36,44c-.32-.29-.32-.28-.64,0a8.24,8.24,0,0,1-5.67,2.26,12.06,12.06,0,0,1-4.49-.77A8.4,8.4,0,0,1,69.18,39,10.39,10.39,0,0,1,69,36.77Z" style="fill:#fec530"/><path d="M183.37,32.5V19.21a.34.34,0,0,1,.29-.37h2.45c.26,0,.39.09.37.36a2.54,2.54,0,0,0,0,.39V45.45c0,.81.08.71-.72.72h-2c-.28,0-.41-.09-.38-.38V32.5Z" style="fill:#fec530"/><path d="M52.25,0V61.39H44.08V14.61c0-.67.08-.54-.55-.74L34,11,12.79,4.48.44.71,0,.58V0Z" style="fill:#fec530"/><path d="M.09,7.53a.78.78,0,0,1,.45.06l8.94,2.73L35,18.12c.75.23,1.49.47,2.24.68.21.06.32.16.29.38V61.39h-7V25.49c0-.51,0-.51-.48-.65L15.49,20.4,1.3,16.07a10.13,10.13,0,0,1-1.21-.41Z" style="fill:#fec52f"/><path d="M.09,21a.57.57,0,0,1,.49.08l16.9,5.17,7.41,2.25c.53.17.53.17.53.71V61.39H20.11v-27c0-.44.1-.43-.43-.59l-3.46-1.06L.49,27.89c-.16,0-.31-.14-.49-.09v-.18c.15-.13.09-.31.09-.47Z" style="fill:#fec52f"/><path d="M16.53,61.39H12.21V40.53c0-.4,0-.41-.36-.51Q7,38.5,2,37a17,17,0,0,0-2-.58v-5A13.23,13.23,0,0,1,1.85,32L16,36.32c.64.19.55,0,.55.72V60.79C16.54,61,16.53,61.19,16.53,61.39Z" style="fill:#fec530"/><path d="M0,39.55l8.76,2.67c.44.14.44.14.44.59V61.39H5.79V45.27c0-.36,0-.36-.36-.47l-5-1.53a.61.61,0,0,0-.4-.05Z" style="fill:#fec530"/><path d="M0,45.79l3,.9a.29.29,0,0,1,.27.33h0V61.39H0Z" style="fill:#fec530"/></svg>