<svg enable-background="new 0 0 324 108.1" viewBox="0 0 324 108.1" xmlns="http://www.w3.org/2000/svg"><g fill="#212322"><path d="m21.2 77.1c-1.4-.7-2.5-1.3-2.5-2.6 0-1.7 1.5-1.9 2-1.9.6 0 1.1.2 1.4.5.4.4.5 1 .5 1.8v.1h2v-.1c.1-1.3-.2-2.4-.9-3-.6-.7-1.6-1-2.9-1-2.5 0-4.1 1.5-4.1 3.8 0 2.2 1.8 3.2 3.4 4 1.3.7 2.6 1.4 2.6 2.7 0 1.7-1.2 2.1-2.3 2.1-.6 0-2.1-.2-2.1-2.3v-.5h-1.9v.1c0 .7-.1 2.3 1 3.4.7.7 1.7 1 3.1 1 2.8 0 4.3-1.4 4.3-3.9-.2-2.4-2-3.4-3.6-4.2z"/><path d="m38.3 72.9h3.5v11.9h1.9s0-11.7 0-11.9h3.5v-1.7h-9v1.7z"/><path d="m63.9 71.2-4.3 13.7h2s1-3.1 1-3.2h5c0 .1 1 3.2 1 3.2h2.2l-4.4-13.7zm3.1 8.7c-.3 0-3.7 0-4 0 .1-.3 1.8-6.2 2-6.7.2.5 2 6.5 2 6.7z"/><path d="m92.5 81.2c-.1-2.5-.6-3.2-2-3.5 1.4-.4 2.3-1.5 2.3-3.1 0-.8-.2-3.5-3.3-3.5h-4.7v13.7h1.9s0-6 0-6.2h1.9c.4 0 1.8 0 1.9 1.6 0 0 .1 1.5.1 1.5.1 1.2.1 2.3.4 3v.1h2v-.1c-.3-.8-.5-2.9-.5-3.5zm-5.9-8.3h2.5c1.2 0 1.7 1 1.7 1.9 0 1-.4 2.1-1.7 2.1 0 0-2.3 0-2.5 0 0-.2 0-3.8 0-4z"/><path d="m124 84.8h1.9s0-5.9 0-6.1h4.7v-1.7s-4.5 0-4.7 0c0-.2 0-3.9 0-4.1h4.9v-1.7h-6.8z"/><path d="m151.6 79.9c0 3-.9 3.6-2.4 3.6s-2.4-.6-2.4-3.6v-8.7h-1.9v8.6c0 3.7 1.3 5.3 4.3 5.3s4.3-1.6 4.3-5.3v-8.6h-1.9z"/><path d="m176.5 81.2c-.1-2.5-.6-3.2-2-3.5 1.4-.4 2.3-1.5 2.3-3.1 0-.8-.2-3.5-3.3-3.5h-4.7v13.7h1.9s0-6 0-6.2h1.9c.4 0 1.8 0 1.9 1.6 0 0 .1 1.5.1 1.5.1 1.2.1 2.3.4 3v.1h2v-.1c-.3-.8-.5-2.9-.5-3.5zm-5.9-8.3h2.5c1.3 0 1.7 1 1.7 1.9 0 1-.4 2.1-1.7 2.1 0 0-2.3 0-2.5 0 0-.2 0-3.8 0-4z"/><path d="m199.3 82.3c-.3-.7-5.1-11.2-5.1-11.2h-2.6v13.7h1.7s0-10.5 0-11.3c.3.7 5.2 11.3 5.2 11.3h2.5v-13.6h-1.7z"/><path d="m216.7 71.2h1.9v13.7h-1.9z"/><path d="m232.8 72.9h3.5v11.9h1.9s0-11.7 0-11.9h3.5v-1.7h-9v1.7z"/><path d="m262.6 79.9c0 3-.9 3.6-2.4 3.6s-2.4-.6-2.4-3.6v-8.7h-1.9v8.6c0 3.7 1.3 5.3 4.3 5.3s4.3-1.6 4.3-5.3v-8.6h-1.9z"/><path d="m287.5 81.2c-.1-2.5-.6-3.2-2-3.5 1.4-.4 2.3-1.5 2.3-3.1 0-.8-.2-3.5-3.3-3.5h-4.7v13.7h1.9s0-6 0-6.2h1.9c.4 0 1.8 0 1.9 1.6 0 0 .1 1.5.1 1.5.1 1.2.1 2.3.4 3v.1h2v-.1c-.3-.8-.5-2.9-.5-3.5zm-5.9-8.3h2.5c1.3 0 1.7 1 1.7 1.9 0 1-.4 2.1-1.7 2.1 0 0-2.3 0-2.5 0 0-.2 0-3.8 0-4z"/><path d="m304.5 83.1c0-.2 0-4.2 0-4.4h4.8v-1.7s-4.6 0-4.8 0c0-.2 0-3.9 0-4.1h5.2v-1.7h-7.1v13.7h7.3v-1.7c-.1-.1-5.2-.1-5.4-.1z"/></g><path d="m111.9 39.6c-42.9-5.2-30.1-21.6-14.6-28.3-.2.2 21.8-9.7 44.4-5 11.1 2.3 3.4 11.7-3.6 6.6-2.8-1.8-15.8-6.7-30.9-1.2-16.9 6.6-15.3 14.3-4.2 16.4 10.8 2 20.2 1.1 27.1 4.9 10.2-3.6 21.2-7.4 32.6-10.9l.1-.2c1.4-1.6 4.3-4.7 6-6.2 7.8-4 20.3-14.1 5.8 2.8 14.6-4.1 29.2-7.3 42.2-8.3 12.3-.9 10.2 9.6-1.3 6.4-6.4-1.5-27.2 3.1-46.3 8.1-12.9 15.1-17.2 25.3-16.9 27.5.2 1.2 1.6 1 3.7 0 3.3-1.6 8.3-5.3 13.2-9.1 2.9-3.7 7.6-7.7 12.4-11 3.5-2.4 7.3-4.6 10.5-6 2.2-1.3 6.3-1.9 7.7 1.2 5.4 2.6 0 8.9-3.7 14-10.1 15-.1 9.5 4.3 5.3 2.8-1.5 16.2-14.9 22.6-23.1 2.3-3.1 4.1-1.2 3.4 1.3-1.3 1-1.2 4.1-.7 6.1.4 2 8.9 7.2-.3 17.1-1.5 1.6-2.6 3-3.3 4.2-3.6 6.1 2.4 6.8 8.3 6 2.3 0 10.7-3.6 20.9-6 5.9-1.4 12.5-2.3 18.7-1.8 1.8.4 3 1.1 3.5 1.8 1.7 2-1.7 4.4-8.4 3.5-11.2-1.8-21.7 2-34.3 6.4-19.1 5.9-22.3-3.2-18.5-9.9 2.2-3.8 6.6-7.6 10.6-11.1 2.9-2.5 2.5-4.5 1.2-7.7-.1-1.3-3.5-3.2-5.5 0-.3.3-9.1 9.6-15.8 15.5-1.4 1.2-2.9 2.3-4.2 3.4-12.5 9.2-21.5 9.5-17.4 0 .3-.6.6-1.2.9-1.9-.7.7-1.5 1.3-2.1 1.9-13.6 11.4-18 8.3-15.9 0 .3-1 .6-2.2 1.1-3.4-1.5 1.2-2.9 2.3-4.3 3.4-18.7 14.2-20.6 8.4-17.5 0 .4-1 .8-2 1.3-3.1 1.4-4.2 6.9-14.1 13.1-21.4-13.5 3.7-24 6.9-24.1 6.9 5 4.8 5.9 11.1 3.4 17.8-4.7 12.4-16.8 21.8-27.5 28.9-13.5 8.9-28.1 16.1-44 19.1-6.5 1.2-23.3 3.6-23.6-7.1-.3-9.5 10-18 16.3-23.5 5.5-4.8 15.4-11 27.2-17.4 1.2-.6 2.5-1.3 3.7-2 7-3.5 14.8-7.3 22.7-10.9zm-43.7 27.9c-16.1 10.8-28 35.9 14.6 23.1 47.6-18.1 54-48.5 34.7-49.9-9.1 3.6-18.3 7.8-26.1 12-9.1 4.8-17.4 10.1-23.2 14.8zm125.4-34.6c-2.2-1.3-5.7-1-9.8 2-2.5 1.8-5.3 4.8-8 8.9-4.4 6.6-1 16 17.8-10.9" fill="#5b89b4"/></svg>