<?xml version="1.0" encoding="utf-8"?>
<!-- Generator: Adobe Illustrator 22.1.0, SVG Export Plug-In . SVG Version: 6.00 Build 0)  -->
<svg version="1.1" id="Layer_1" xmlns="http://www.w3.org/2000/svg" xmlns:xlink="http://www.w3.org/1999/xlink" x="0px" y="0px"
	 viewBox="0 0 476.7 69.3" style="enable-background:new 0 0 476.7 69.3;" xml:space="preserve">
<style type="text/css">
	.st0{fill:#201D1D;}
</style>
<g>
	<path class="st0" d="M158.6,63.4c0,0,2.5-1,3.3-1c2.4-0.1,2.3,0.5,5.2,1c1.6,0.3,5.9,0.3,7.9-0.1c3.1-0.6,7.5-3.5,9.8-7.2
		c1.3-2.1,1.9-6.8,0.7-10.3c-0.8-2.2-5.6-6-10.9-7.5c-1.3-0.4-9.1-1.9-9.3-6.8c-0.1-1.8,0.5-5.1,7.9-4.5c1.6,0.1,2.8,1.2,2.8,1.2
		s-1,0.7-1.1,1.7c-0.1,0.7-1,4.8,3,6.1c1.2,0.4,2.7,0.5,3.7,0.2c1-0.3,2.4-1.4,2.8-2.5c0.6-1.8,0.5-3.4,0.3-4c-0.5-1.6,1.4-4,1.4-4
		l-4.6-3.6c0,0-0.5,0.5-2.1,0.8c-3.3,0.7-6.3-1-10.2-1c-1.8,0-5.9,0.2-8.2,1c-7.3,2.6-7.1,10.7-7,12.4c0.5,7.8,6.3,9.9,8.5,10.5
		c1.4,0.4,5.2,1.7,8.4,3c3.2,1.3,5.3,2.7,4.5,6.9c-0.6,2.9-6.1,3.2-6.9,2.9c-0.8-0.3-3.3-1.6-3-2.2c0.4-0.7,2-6.1-4.2-7.3
		c-3-0.6-5.7,2-6.2,4.1c-0.3,1.5-0.1,3.6-0.1,4.4c0,0.8-0.7,2-0.7,2L158.6,63.4z"/>
	<path class="st0" d="M141.4,28.5c0,0,2.8,0.1,5.5-2.4c2.7-2.5,4-5.3,3.8-7.4c-0.1-2.1-0.4-3.7-2.2-5.1c-1.8-1.4-3.4-1.6-4.8-1.5
		c-0.8,0.1-3,1-4.1,2.4c-0.9,1.1-1.1,2.4-1.1,3.9c0,1.5,0.5,3.2,1.4,4c1.3,1.1,2.1,1.6,3.3,2.1c0.5,0.2,1,0.3-0.5,2
		C141.9,27.5,141.4,28.5,141.4,28.5z"/>
	<path class="st0" d="M108.8,41.5c-0.5-2.1-2.4-9.5,3.6-11.7c3.4-1.3,6.7,0.6,8.4,2c1.9,1.7,3.1,4.3,3.1,4.3L110.1,45
		C110.1,45,109.3,43.5,108.8,41.5z M112.2,50L131,37.8c0,0,2.6-1.6,3.7-2.7c0.2-0.2,0.5-0.9,0.5-1.1c-0.1-0.9-0.6-2.1-2-4
		c-1.4-1.9-5.1-5.1-7.6-6.1c-6.2-2.5-15.5-1.8-20.3,1.1c-1.7,1-4.8,3.7-6.5,6.1c-1.7,2.4-4,8.4-3,14.6c1.5,9.4,7.1,13.3,10,14.9
		c2.8,1.5,5.8,2.7,9.1,2.9c3.3,0.2,6.6,0.4,10.5-1c3.8-1.3,7.4-4.4,8.6-6.3c1.1-1.9,2.8-4.5,3-5.5c0.4-2-1.8-3-2.7-2.8
		c-0.9,0.3-4,6-6.7,7.2c-2.8,1.3-6.5,2.3-9.1,1.5C114.6,55.5,112.2,50,112.2,50z"/>
	<path class="st0" d="M1,59.2l4.7,4.2c0,0,5-1.1,6.7-0.7c2.7,0.6,7.2,1,8.6,1.3c1.4,0.3,6.5,0.2,9.1-0.3
		c9.6-1.9,14.4-11.6,15.4-16.2c0.4-2,1.9-13-9.4-18.1c-4.2-1.9-14.3-6.5-16-7.8c-1.7-1.2-6.6-9.4-0.3-13.7c4-2.7,10.4,1.7,10.4,1.7
		s-3.5,4.5-1.4,8.9c1,2.3,3.3,5.9,10.4,3.7c3.1-1,4.1-4.5,4.3-7.6c0.2-2.9-2.1-6.7-1.5-7.9c0.3-0.6,0.5-0.9,0.5-0.9l-5.6-4
		c0,0-2.8,0.5-4.3,0.6c-2.8,0.3-12.7-3.4-22.5,1c-5.8,2.6-8,8.8-8.6,11.7C0.9,17.9,0.7,25.8,5,29.7C9.3,33.6,26.5,40,30.5,44.9
		c2.1,2.5,4.4,10.9-2.5,13c-8.3,2.5-10-1-10-1s5.5-9.7-2.4-13.5C5.3,38.4,2.1,48,1.8,49.8c-0.3,2.1,0,3.9,0,5.7
		C1.8,57.6,1,59.2,1,59.2z"/>
	<path class="st0" d="M89.5,49.9c-0.4-0.6-0.7-1.2-1.6-1.3c-0.9-0.1-2.3,0.9-2.8,1.8c-0.5,0.9-1.9,2.9-3.6,3.7
		c-1.5,0.7-3.8,2-7.5,1.3c-3.4-0.6-4.8-2.3-6.2-3.4c-0.9-0.7-2.6-2.9-2.6-2.9s22.3-14,22.5-14.1c0.2-0.1,0.1-0.5-0.3-1.8
		c-0.4-1.3-1.5-3.1-2.1-4c-0.6-0.9-8.8-11.8-24.4-5.4C52,27.6,51,35.1,50.3,38.7c-0.9,4.8,1,14.1,4.9,18.1c3.2,3.3,3.9,4.3,8.4,5.8
		c4.9,1.6,15.4,1.4,19.8-2.3c3-2.5,4.4-4.7,5.3-6.5C89.7,52,89.8,50.5,89.5,49.9z M63.1,44c0,0-1.3-2.3-1.6-4.1
		c-0.8-4.9,0.9-7.2,2.1-8.5c2.5-2.6,8-3.6,11.4,0.1c0.5,0.6,2.2,3.9,2.2,3.9L63.1,44z"/>
</g>
<g>
	<polygon class="st0" points="313.5,49.1 296.8,22.2 286.9,22.2 286.8,63.5 290.9,63.5 290.9,35.5 307.6,63.5 317.8,63.5 
		317.8,22.5 313.5,22.5 	"/>
	<path class="st0" d="M260.7,22.2l-15.2,41.3l4,0.1l4.7-11.4h12.5l4.5,11.4h11.8l-15.9-41.4H260.7z M255.8,47.6l4.9-12.4l4.8,12.4
		H255.8z"/>
	<path class="st0" d="M231.5,58.7c0,0,0,0.7-0.6,0.8c-0.9,0.2-5.2,0.1-6.1,0.1c-0.9,0-1-1.2-1-1.2l-0.1-30.7c0,0-0.1-0.7,0.9-0.9
		c1-0.2,4.6,0,5.5,0c0.9,0,1,0.3,1,1.2c0,1.4,0,4.9,0,4.9l10.4,0l0-8.9c0,0,0-0.9-0.6-1.3c-0.8-0.5-1.3-0.3-2-0.3
		c-1.5,0-22.9,0.1-22.9,0.1s-1.5-0.1-2.2,0.7c-0.7,0.9-0.5,2.7-0.5,2.7V61c0,0,0.1,1.3,1,2c0.9,0.7,1.5,0.5,2.7,0.7
		c1.2,0.2,21.5-0.1,22.3,0c0.2,0,1.1-0.1,2-1.1c0.9-0.9,0.7-2.8,0.7-3.9c0-1.1,0-5.5,0-5.5l-10.6,0.1L231.5,58.7z"/>
	<path class="st0" d="M461.2,32.9V25c0,0-0.1-1.3-0.9-1.9c-0.8-0.5-1.9-0.7-1.9-0.7H431c0,0-1.1,0-1.9,0.9c-0.8,0.9-0.6,2.4-0.6,2.4
		v16.6c0,0,0,1.3,1.2,2.1c1.1,0.7,2,0.8,2,0.8h17c0,0,0.8,0.3,0.8,0.9c0,0.7,0,12.6,0,12.6s0.4,0.7-0.8,0.9c-0.6,0.1-8.1,0-8.1,0
		s-0.8-0.3-0.8-1c0-0.7,0-5.4,0-5.4h-11.4v7.8c0,0,0.4,1.1,0.8,1.5c0.4,0.4,1.4,1.1,1.8,1.1c0.4,0,27.2,0,27.2,0s1.4-0.3,2.2-1.1
		c0.8-0.8,0.6-3.1,0.6-3.1V43.2c0,0-0.3-1.3-0.9-1.7c-0.6-0.4-2.2-0.5-2.2-0.5h-16.9c0,0-1.1-0.2-1.2-1.1c-0.1-0.5,0-12.1,0-12.1
		s0.1-0.8,0.6-0.9c0.5-0.1,8.4,0,8.4,0s0.8,0.1,0.9,0.7c0.1,0.5,0.2,5.1,0.2,5.1L461.2,32.9z"/>
	<path class="st0" d="M402.5,26.9h18.2l-0.1-4.6l-26.1,0.2c0,0-1.8-0.1-2.7,1.3c-0.9,1.4-0.9,2.7-0.9,2.7l-0.1,33.2
		c0,0,0,2.5,0.4,3.1c0.6,0.8,2,0.8,2,0.8h27.3v-4.2c0,0-18.2-0.1-18.5-0.2c-0.3-0.1-0.6-0.6-0.6-0.6s-0.3-13.4-0.1-13.9
		c0.2-0.5,0.9-0.9,0.9-0.9l13.5-0.1l0.1-4.6c0,0-13,0.3-13.4,0c-0.4-0.3-0.5-0.5-0.5-0.5s-0.1-10.9,0-11.2
		C401.9,27.2,402.5,26.9,402.5,26.9z"/>
	<path class="st0" d="M355.5,22.5c-1-0.2-28.6,0-28.6,0v40.9h28.9c0,0,1.2,0.1,1.9-0.7c0.9-1,0.8-3.2,0.8-3.2V26.6
		c0,0,0.4-2.2-0.6-3.1C357.1,22.9,356.5,22.7,355.5,22.5z M348.2,58.9c-0.3,0.7-0.7,0.7-0.7,0.7h-10.2V27.3c0,0,10.2-0.1,10.4,0.1
		c0.4,0.4,0.5,0.6,0.5,0.6S348.6,58.2,348.2,58.9z"/>
	<polygon class="st0" points="370.4,63.7 381.5,63.7 381.5,22.5 370.4,22.4 	"/>
</g>
<g>
	<path class="st0" d="M470.8,58.8c0.8,0,1.6,0.2,2.4,0.6c0.8,0.4,1.4,1,1.9,1.8c0.4,0.8,0.7,1.6,0.7,2.5c0,0.9-0.2,1.7-0.7,2.5
		c-0.4,0.8-1,1.4-1.8,1.8c-0.8,0.4-1.6,0.7-2.5,0.7c-0.9,0-1.7-0.2-2.5-0.7c-0.8-0.4-1.4-1-1.8-1.8c-0.4-0.8-0.7-1.6-0.7-2.5
		c0-0.9,0.2-1.7,0.7-2.5c0.4-0.8,1.1-1.4,1.9-1.8C469.1,59,469.9,58.8,470.8,58.8z M470.8,59.6c-0.7,0-1.4,0.2-2,0.5
		c-0.7,0.4-1.2,0.9-1.5,1.5c-0.4,0.7-0.6,1.4-0.6,2.1c0,0.7,0.2,1.4,0.6,2.1c0.4,0.7,0.9,1.2,1.5,1.5c0.7,0.4,1.3,0.5,2.1,0.5
		c0.7,0,1.4-0.2,2.1-0.5c0.7-0.4,1.2-0.9,1.5-1.5c0.4-0.7,0.5-1.3,0.5-2.1c0-0.7-0.2-1.4-0.6-2.1c-0.4-0.7-0.9-1.2-1.6-1.5
		C472.1,59.8,471.4,59.6,470.8,59.6z M468.6,66.5v-5.3h1.8c0.6,0,1.1,0,1.4,0.1c0.3,0.1,0.5,0.3,0.7,0.5c0.2,0.2,0.2,0.5,0.2,0.8
		c0,0.4-0.1,0.7-0.4,1c-0.3,0.3-0.7,0.4-1.1,0.5c0.2,0.1,0.3,0.2,0.5,0.3c0.2,0.2,0.5,0.6,0.8,1.1l0.7,1H472l-0.5-0.8
		c-0.4-0.7-0.7-1.1-0.9-1.2c-0.2-0.1-0.4-0.2-0.7-0.2h-0.5v2.3H468.6z M469.4,63.5h1.1c0.5,0,0.9-0.1,1-0.2c0.2-0.1,0.3-0.3,0.3-0.6
		c0-0.2,0-0.3-0.1-0.4c-0.1-0.1-0.2-0.2-0.4-0.3c-0.2-0.1-0.5-0.1-0.9-0.1h-1V63.5z"/>
</g>
</svg>
